HIERARCHY
ROOT	Hips
{
	OFFSET	0.000	0.000	0.000
	CHANNELS	6	Xposition	Yposition	Zposition	Yrotation	Xrotation	Zrotation
	JOINT	Chest
	{
		OFFSET	0.000	10.049	-0.018
		CHANNELS	3	Yrotation	Xrotation	Zrotation
		JOINT	Chest2
		{
			OFFSET	-0.013	22.718	-0.005
			CHANNELS	3	Yrotation	Xrotation	Zrotation
			JOINT	LeftCollar
			{
				OFFSET	3.045	22.720	0.013
				CHANNELS	3	Yrotation	Xrotation	Zrotation
				JOINT	LeftShoulder
				{
					OFFSET	11.359	0.006	-0.000
					CHANNELS	3	Yrotation	Xrotation	Zrotation
					JOINT	LeftElbow
					{
						OFFSET	26.214	0.015	-0.001
						CHANNELS	3	Yrotation	Xrotation	Zrotation
						JOINT	LeftWrist
						{
							OFFSET	26.214	0.015	-0.001
							CHANNELS	3	Yrotation	Xrotation	Zrotation
							End Site
							{
								OFFSET	-0.000	-10.922	-0.006
							}
						}
					}
				}
			}
			JOINT	Neck
			{
				OFFSET	-0.013	22.718	0.008
				CHANNELS	3	Yrotation	Xrotation	Zrotation
				JOINT	Head
				{
					OFFSET	-0.004	6.553	0.004
					CHANNELS	3	Yrotation	Xrotation	Zrotation
					End Site
					{
						OFFSET	-0.012	20.534	-0.005
					}
				}
			}
			JOINT	RightCollar
			{
				OFFSET	-3.071	22.717	0.013
				CHANNELS	3	Yrotation	Xrotation	Zrotation
				JOINT	RightShoulder
				{
					OFFSET	-11.359	-0.006	0.000
					CHANNELS	3	Yrotation	Xrotation	Zrotation
					JOINT	RightElbow
					{
						OFFSET	-26.214	-0.015	0.001
						CHANNELS	3	Yrotation	Xrotation	Zrotation
						JOINT	RightWrist
						{
							OFFSET	-26.214	-0.015	0.001
							CHANNELS	3	Yrotation	Xrotation	Zrotation
							End Site
							{
								OFFSET	-0.000	-10.922	0.006
							}
						}
					}
				}
			}
		}
	}
	JOINT	LeftHip
	{
		OFFSET	8.738	-0.000	-0.000
		CHANNELS	3	Yrotation	Xrotation	Zrotation
		JOINT	LeftKnee
		{
			OFFSET	-0.000	-43.689	-0.035
			CHANNELS	3	Yrotation	Xrotation	Zrotation
			JOINT	LeftAnkle
			{
				OFFSET	-0.000	-43.689	-0.035
				CHANNELS	3	Yrotation	Xrotation	Zrotation
				End Site
				{
					OFFSET	-0.000	-10.059	12.924
				}
			}
		}
	}
	JOINT	RightHip
	{
		OFFSET	-8.738	0.000	0.000
		CHANNELS	3	Yrotation	Xrotation	Zrotation
		JOINT	RightKnee
		{
			OFFSET	-0.000	-43.689	-0.035
			CHANNELS	3	Yrotation	Xrotation	Zrotation
			JOINT	RightAnkle
			{
				OFFSET	-0.000	-43.689	-0.035
				CHANNELS	3	Yrotation	Xrotation	Zrotation
				End Site
				{
					OFFSET	-0.000	-10.059	12.924
				}
			}
		}
	}
}
MOTION
Frames:	11
Frame Time:	0.033
-0.000	96.800	0.000	0.000	-0.000	0.000	-0.000	0.000	0.000	0.000	-0.000	0.000	0.000	-0.000	0.000	0.000	-0.000	0.000	0.000	-0.000	0.000	-0.000	-0.000	90.000	0.000	-0.000	0.000	0.000	-0.000	0.000	-0.000	-0.000	-0.000	0.000	-0.000	0.000	0.000	-0.000	0.000	-0.000	0.000	270.000	0.000	0.000	0.000	0.000	-0.000	0.000	0.000	-0.000	0.000	0.000	0.000	0.000	0.000	-0.000	0.000	0.000	-0.000	0.000	
188.068	95.472	63.200	30.700	23.252	353.002	5.065	35.041	2.441	5.065	35.041	2.441	341.466	333.924	11.684	335.874	329.422	285.088	352.468	44.405	359.202	13.651	357.479	139.739	351.104	346.702	3.239	351.104	346.702	3.239	15.720	323.682	345.710	37.541	326.913	32.027	46.275	22.313	354.549	12.583	39.139	216.076	24.713	317.327	0.251	344.379	12.206	356.749	352.620	3.379	352.171	321.175	327.905	21.329	13.873	12.906	0.487	0.105	2.561	0.994	
188.068	95.472	63.200	30.700	23.252	353.002	5.065	35.041	2.441	5.065	35.041	2.441	341.466	333.924	11.684	335.874	329.422	285.088	352.468	44.405	359.202	13.651	357.479	139.739	351.104	346.702	3.239	351.104	346.702	3.239	15.720	323.682	345.710	37.541	326.913	32.027	46.275	22.313	354.549	12.583	39.139	216.076	24.713	317.327	0.251	344.379	12.206	356.749	352.620	3.379	352.171	321.175	327.905	21.329	13.873	12.906	0.487	0.105	2.561	0.994	
188.061	95.470	63.193	30.699	23.246	353.006	5.066	35.039	2.437	5.066	35.039	2.437	341.465	333.926	11.694	335.862	329.420	285.091	352.465	44.401	359.192	13.653	357.472	139.738	351.102	346.705	3.243	351.102	346.705	3.243	15.741	323.675	345.708	37.546	326.914	32.016	46.211	22.357	354.547	12.496	39.151	215.973	24.721	317.324	0.244	344.376	12.217	356.748	352.611	3.376	352.169	321.175	327.902	21.330	13.870	12.911	0.485	0.111	2.561	0.991	
188.042	95.460	63.183	30.696	23.231	353.018	5.077	35.038	2.435	5.077	35.038	2.435	341.449	333.936	11.727	335.845	329.397	285.093	352.461	44.388	359.175	13.655	357.467	139.725	351.092	346.710	3.255	351.092	346.710	3.255	15.740	323.670	345.708	37.604	326.899	31.934	46.043	22.446	354.544	12.416	39.071	215.911	24.740	317.322	0.230	344.358	12.231	356.744	352.609	3.381	352.164	321.167	327.895	21.334	13.877	12.926	0.476	0.109	2.559	0.988	
188.017	95.452	63.170	30.702	23.212	353.036	5.100	35.035	2.440	5.100	35.035	2.440	341.424	333.944	11.742	335.853	329.386	285.077	352.451	44.390	359.170	13.644	357.464	139.735	351.073	346.705	3.275	351.073	346.705	3.275	15.717	323.658	345.706	37.606	326.877	31.870	45.975	22.374	354.599	12.682	38.760	216.152	24.736	317.324	0.227	344.365	12.239	356.745	352.591	3.391	352.158	321.148	327.887	21.347	13.897	12.943	0.460	0.092	2.560	0.983	
187.988	95.442	63.145	30.708	23.176	353.051	5.111	35.034	2.422	5.111	35.034	2.422	341.415	334.009	11.790	335.876	329.330	285.061	352.413	44.373	359.179	13.662	357.494	139.728	351.067	346.696	3.302	351.067	346.696	3.302	15.695	323.645	345.709	37.635	326.908	31.801	45.897	22.111	354.631	13.052	38.639	216.588	24.723	317.331	0.240	344.375	12.238	356.729	352.569	3.419	352.159	321.175	327.870	21.316	13.900	12.958	0.462	0.055	2.575	0.976	
187.961	95.432	63.112	30.713	23.155	353.059	5.113	35.026	2.409	5.113	35.026	2.409	341.413	334.016	11.797	335.859	329.347	285.084	352.362	44.358	359.133	13.650	357.480	139.731	351.048	346.699	3.323	351.048	346.699	3.323	15.680	323.640	345.715	37.733	327.048	31.702	45.821	21.917	354.593	13.130	38.648	216.741	24.749	317.329	0.221	344.348	12.234	356.723	352.561	3.438	352.157	321.182	327.857	21.305	13.886	12.966	0.459	0.053	2.593	0.973	
187.930	95.425	63.092	30.721	23.128	353.064	5.119	35.024	2.403	5.119	35.024	2.403	341.412	334.028	11.816	335.914	329.325	285.094	352.273	44.361	359.023	13.635	357.478	139.722	351.030	346.683	3.334	351.030	346.683	3.334	15.693	323.608	345.714	37.765	327.131	31.697	45.749	21.762	354.541	13.163	38.714	216.715	24.766	317.331	0.222	344.341	12.230	356.716	352.528	3.455	352.150	321.168	327.860	21.305	13.889	12.964	0.462	0.049	2.616	0.966	
187.901	95.414	63.070	30.729	23.106	353.075	5.134	35.020	2.397	5.134	35.020	2.397	341.386	334.035	11.857	335.867	329.325	285.106	352.249	44.322	359.000	13.655	357.478	139.707	351.015	346.676	3.351	351.015	346.676	3.351	15.685	323.595	345.738	37.762	327.082	31.704	45.655	21.661	354.552	13.150	38.743	216.527	24.758	317.329	0.228	344.346	12.229	356.706	352.510	3.481	352.145	321.165	327.844	21.306	13.885	12.978	0.458	0.041	2.640	0.955	
187.863	95.402	63.043	30.748	23.069	353.087	5.153	35.028	2.396	5.153	35.028	2.396	341.354	334.031	11.913	335.844	329.321	285.090	352.259	44.304	359.010	13.656	357.462	139.714	351.009	346.672	3.372	351.009	346.672	3.372	15.704	323.583	345.743	37.778	327.038	31.715	45.480	21.442	354.449	13.065	38.855	216.221	24.746	317.334	0.248	344.341	12.220	356.687	352.485	3.517	352.141	321.173	327.820	21.300	13.855	13.020	0.443	0.036	2.653	0.945	
